<svg xmlns="http://www.w3.org/2000/svg" width="1400" height="820" viewBox="0 0 1400 820" role="img" aria-labelledby="title desc">
  <title id="title">Codex 和 Claude Code 最近一个月更新了什么</title>
  <desc id="desc">一张中文封面图，展示 Codex 和 Claude Code 从代码 Agent 到工作台与平台的变化。</desc>
  <defs>
    <linearGradient id="bg" x1="0" y1="0" x2="1" y2="1">
      <stop offset="0" stop-color="#f7f3e8"/>
      <stop offset="0.52" stop-color="#e7f0ee"/>
      <stop offset="1" stop-color="#f4e6d7"/>
    </linearGradient>
    <filter id="shadow" x="-20%" y="-20%" width="140%" height="140%">
      <feDropShadow dx="0" dy="18" stdDeviation="22" flood-color="#1f2937" flood-opacity="0.18"/>
    </filter>
  </defs>
  <rect width="1400" height="820" fill="url(#bg)"/>
  <rect x="70" y="70" width="1260" height="680" rx="36" fill="#fffaf1" stroke="#1f2937" stroke-opacity="0.12" filter="url(#shadow)"/>
  <text x="120" y="150" fill="#0f172a" font-family="Arial, 'PingFang SC', sans-serif" font-size="34" font-weight="700">2026.04 - 2026.05</text>
  <text x="120" y="250" fill="#111827" font-family="Arial, 'PingFang SC', sans-serif" font-size="64" font-weight="800">Codex × Claude Code</text>
  <text x="120" y="335" fill="#111827" font-family="Arial, 'PingFang SC', sans-serif" font-size="70" font-weight="800">最近一个月更新</text>
  <text x="122" y="410" fill="#475569" font-family="Arial, 'PingFang SC', sans-serif" font-size="30">从代码 Agent 到常驻工作台与开发平台</text>
  <g transform="translate(120 505)">
    <rect width="210" height="72" rx="18" fill="#2563eb" fill-opacity="0.12" stroke="#2563eb" stroke-opacity="0.28"/>
    <text x="28" y="45" fill="#1e3a8a" font-family="Arial, 'PingFang SC', sans-serif" font-size="25" font-weight="700">GPT-5.5</text>
  </g>
  <g transform="translate(355 505)">
    <rect width="210" height="72" rx="18" fill="#0f766e" fill-opacity="0.12" stroke="#0f766e" stroke-opacity="0.28"/>
    <text x="28" y="45" fill="#115e59" font-family="Arial, 'PingFang SC', sans-serif" font-size="25" font-weight="700">Browser Use</text>
  </g>
  <g transform="translate(590 505)">
    <rect width="210" height="72" rx="18" fill="#b45309" fill-opacity="0.13" stroke="#b45309" stroke-opacity="0.3"/>
    <text x="28" y="45" fill="#92400e" font-family="Arial, 'PingFang SC', sans-serif" font-size="25" font-weight="700">Automations</text>
  </g>
  <g transform="translate(825 505)">
    <rect width="210" height="72" rx="18" fill="#9333ea" fill-opacity="0.11" stroke="#9333ea" stroke-opacity="0.26"/>
    <text x="28" y="45" fill="#6b21a8" font-family="Arial, 'PingFang SC', sans-serif" font-size="25" font-weight="700">Ultrareview</text>
  </g>
  <g transform="translate(1060 505)">
    <rect width="210" height="72" rx="18" fill="#dc2626" fill-opacity="0.1" stroke="#dc2626" stroke-opacity="0.25"/>
    <text x="28" y="45" fill="#991b1b" font-family="Arial, 'PingFang SC', sans-serif" font-size="24" font-weight="700">Claude Security</text>
  </g>
  <g transform="translate(930 145)">
    <rect x="0" y="70" width="270" height="190" rx="30" fill="#0f172a"/>
    <rect x="28" y="105" width="214" height="22" rx="11" fill="#38bdf8"/>
    <rect x="28" y="146" width="170" height="18" rx="9" fill="#fbbf24"/>
    <rect x="28" y="184" width="198" height="18" rx="9" fill="#34d399"/>
    <rect x="28" y="222" width="132" height="18" rx="9" fill="#fb7185"/>
    <circle cx="310" cy="315" r="54" fill="#111827"/>
    <rect x="278" y="285" width="64" height="64" rx="16" fill="#fde68a"/>
    <circle cx="299" cy="312" r="6" fill="#111827"/>
    <circle cx="322" cy="312" r="6" fill="#111827"/>
    <path d="M300 334 Q310 342 323 334" fill="none" stroke="#111827" stroke-width="5" stroke-linecap="round"/>
  </g>
</svg>
