<svg xmlns="http://www.w3.org/2000/svg" width="1200" height="760" viewBox="0 0 1200 760" role="img" aria-labelledby="title desc">
  <title id="title">Codex Appshot 实现原理封面</title>
  <desc id="desc">左右 Command 触发 Codex 输入框截图附件的技术文章封面</desc>
  <defs>
    <linearGradient id="bg" x1="0" y1="0" x2="1" y2="1">
      <stop offset="0%" stop-color="#f7f3ea"/>
      <stop offset="52%" stop-color="#edf7f8"/>
      <stop offset="100%" stop-color="#f6eef4"/>
    </linearGradient>
    <filter id="shadow" x="-20%" y="-20%" width="140%" height="140%">
      <feDropShadow dx="0" dy="18" stdDeviation="20" flood-color="#16202f" flood-opacity="0.18"/>
    </filter>
    <marker id="arrow" viewBox="0 0 10 10" refX="9" refY="5" markerWidth="10" markerHeight="10" orient="auto">
      <path d="M0 0L10 5L0 10Z" fill="#2d6f7c"/>
    </marker>
  </defs>
  <rect width="1200" height="760" fill="url(#bg)"/>
  <path d="M80 110H1120M80 205H1120M80 300H1120M80 395H1120M80 490H1120M80 585H1120" stroke="#172033" stroke-opacity="0.055"/>
  <path d="M170 70V690M290 70V690M410 70V690M530 70V690M650 70V690M770 70V690M890 70V690M1010 70V690" stroke="#172033" stroke-opacity="0.045"/>
  <rect x="72" y="64" width="1056" height="632" rx="30" fill="#fffdfa" opacity="0.86" filter="url(#shadow)"/>
  <text x="112" y="148" font-family="Arial, 'PingFang SC', sans-serif" font-size="58" font-weight="800" fill="#141923">Codex Appshot 实现原理</text>
  <text x="116" y="202" font-family="Arial, 'PingFang SC', sans-serif" font-size="25" fill="#5c6876">左右 Command 如何变成输入框截图</text>
  <g transform="translate(124 304)">
    <rect x="0" y="0" width="210" height="156" rx="24" fill="#172033"/>
    <text x="105" y="58" text-anchor="middle" font-family="Arial, 'PingFang SC', sans-serif" font-size="24" font-weight="800" fill="#f8fafc">⌘</text>
    <text x="105" y="102" text-anchor="middle" font-family="Arial, 'PingFang SC', sans-serif" font-size="24" font-weight="800" fill="#f8fafc">Left Command</text>
    <text x="105" y="132" text-anchor="middle" font-family="ui-monospace, Menlo, monospace" font-size="16" fill="#9cc7d1">modifierFlags</text>
  </g>
  <g transform="translate(124 492)">
    <rect x="0" y="0" width="210" height="110" rx="22" fill="#172033"/>
    <text x="105" y="46" text-anchor="middle" font-family="Arial, 'PingFang SC', sans-serif" font-size="24" font-weight="800" fill="#f8fafc">⌘</text>
    <text x="105" y="78" text-anchor="middle" font-family="Arial, 'PingFang SC', sans-serif" font-size="22" font-weight="800" fill="#f8fafc">Right Command</text>
  </g>
  <g transform="translate(446 330)">
    <rect x="0" y="0" width="260" height="238" rx="26" fill="#e8f8f3" stroke="#75b7aa" stroke-width="3"/>
    <text x="130" y="66" text-anchor="middle" font-family="Arial, 'PingFang SC', sans-serif" font-size="28" font-weight="800" fill="#155e75">bare modifier</text>
    <text x="130" y="112" text-anchor="middle" font-family="ui-monospace, Menlo, monospace" font-size="19" fill="#315b62">stdout: down</text>
    <text x="130" y="154" text-anchor="middle" font-family="Arial, 'PingFang SC', sans-serif" font-size="19" fill="#315b62">Electron main</text>
    <text x="130" y="194" text-anchor="middle" font-family="Arial, 'PingFang SC', sans-serif" font-size="19" fill="#315b62">appshot-shortcut</text>
  </g>
  <g transform="translate(830 304)">
    <rect x="0" y="0" width="248" height="298" rx="28" fill="#fff8e6" stroke="#d4a84f" stroke-width="3"/>
    <rect x="36" y="42" width="176" height="106" rx="16" fill="#ffffff" stroke="#d9c99f"/>
    <path d="M56 120L92 86L122 108L145 78L192 122" fill="none" stroke="#2d6f7c" stroke-width="5" stroke-linecap="round" stroke-linejoin="round"/>
    <circle cx="78" cy="68" r="13" fill="#f0b45b"/>
    <text x="124" y="198" text-anchor="middle" font-family="Arial, 'PingFang SC', sans-serif" font-size="28" font-weight="800" fill="#7a4d12">Composer</text>
    <text x="124" y="236" text-anchor="middle" font-family="Arial, 'PingFang SC', sans-serif" font-size="19" fill="#604c2e">appshot attachment</text>
    <text x="124" y="270" text-anchor="middle" font-family="Arial, 'PingFang SC', sans-serif" font-size="19" fill="#604c2e">截图 + 辅助功能文本</text>
  </g>
  <path d="M348 432H430" stroke="#2d6f7c" stroke-width="5" marker-end="url(#arrow)"/>
  <path d="M718 450H812" stroke="#2d6f7c" stroke-width="5" marker-end="url(#arrow)"/>
  <rect x="344" y="626" width="512" height="48" rx="24" fill="#ffffff" stroke="#ced7df"/>
  <text x="600" y="657" text-anchor="middle" font-family="Arial, 'PingFang SC', sans-serif" font-size="19" font-weight="700" fill="#344052">从裸修饰键事件，到多模态输入附件</text>
</svg>
